# xmcd
#
# Track frame offsets:
#	150
#	14362
#	26992
#	35972
#	45827
#	59360
#	70800
#	82355
#	97145
#	108465
#
# Disc length: 1568 seconds
#
# Revision: 2
# Processed by: cddbd v1.5.2PL0 Copyright (c) Steve Scherf et al.
# Submitted via: EZCDAudioConverter 2.1.3.1
#
DISCID=8e061e0a
DTITLE=Various Artist - Bluegrass Gospel
DYEAR=2000
DGENRE=Bluegrass
TTITLE0=The Stanley Brothers - Rank Strangers
TTITLE1=Jimmy Martin - Stormy Waters
TTITLE2=Brown's Ferry Four - Over In Gloryland
TTITLE3=Molly O'Day - Traveling The Highway Home
TTITLE4=The Lewis Family - The Purple Robe
TTITLE5=Don Reno and Red Smiley - I'm Using My Bible For A Roadmap
TTITLE6=Ralph Stanley - Going Home To Live In Green Pastures
TTITLE7=Wilma Lee and Stoney Cooper - Legend of The Dogwood Tree
TTITLE8=Moore and Napier - Praise God I'm Ready To Go
TTITLE9=Carl Story - Light At The River
EXTD=
EXTT0=
EXTT1=
EXTT2=
EXTT3=
EXTT4=
EXTT5=
EXTT6=
EXTT7=
EXTT8=
EXTT9=
PLAYORDER=
